HIERARCHY
ROOT Hips
{
	OFFSET	0.00	0.00	0.00
	CHANNELS 6 Xposition Yposition Zposition Zrotation Xrotation Yrotation
	JOINT LeftUpLeg
	{
		OFFSET	 0.126116	-0.014019	-0.065224
		CHANNELS 3 Zrotation Xrotation Yrotation
		JOINT LeftLeg
		{
			OFFSET	 0.000000	 0.000000	 0.569914
			CHANNELS 3 Zrotation Xrotation Yrotation
			JOINT LeftFoot
			{
				OFFSET	 0.000000	 0.000000	 0.544423
				CHANNELS 3 Zrotation Xrotation Yrotation
				JOINT LeftToeBase
				{
					OFFSET	 0.000000	 0.000000	 0.207117
					CHANNELS 3 Zrotation Xrotation Yrotation
					End Site
					{
						OFFSET	 0.000000	 0.000000	 0.207117
					}
				}
			}
		}
	}
	JOINT RightUpLeg
	{
		OFFSET	-0.124023	-0.008373	-0.065224
		CHANNELS 3 Zrotation Xrotation Yrotation
		JOINT RightLeg
		{
			OFFSET	 0.000000	 0.000000	 0.570047
			CHANNELS 3 Zrotation Xrotation Yrotation
			JOINT RightFoot
			{
				OFFSET	 0.000000	 0.000000	 0.544354
				CHANNELS 3 Zrotation Xrotation Yrotation
				JOINT RightToeBase
				{
					OFFSET	 0.000000	 0.000000	 0.207540
					CHANNELS 3 Zrotation Xrotation Yrotation
					End Site
					{
						OFFSET	 0.000000	 0.000000	 0.207540
					}
				}
			}
		}
	}
	JOINT Spine
	{
		OFFSET	 0.000184	-0.007763	 0.117403
		CHANNELS 3 Zrotation Xrotation Yrotation
		JOINT Spine1
		{
			OFFSET	 0.000000	 0.000000	 0.137269
			CHANNELS 3 Zrotation Xrotation Yrotation
			JOINT Spine2
			{
				OFFSET	 0.000000	 0.000000	 0.156879
				CHANNELS 3 Zrotation Xrotation Yrotation
				JOINT LeftShoulder
				{
					OFFSET	 0.080501	-0.002496	 0.160144
					CHANNELS 3 Zrotation Xrotation Yrotation
					JOINT LeftArm
					{
						OFFSET	 0.000000	 0.000000	 0.164363
						CHANNELS 3 Zrotation Xrotation Yrotation
						JOINT LeftForeArm
						{
							OFFSET	 0.000000	 0.000000	 0.364576
							CHANNELS 3 Zrotation Xrotation Yrotation
							JOINT LeftHand
							{
								OFFSET	 0.000000	 0.000000	 0.360812
								CHANNELS 3 Zrotation Xrotation Yrotation
								JOINT LeftHandIndex1
								{
									OFFSET	 0.000000	 0.000000	 0.086006
									CHANNELS 3 Zrotation Xrotation Yrotation
									JOINT LeftHandIndex2
									{
										OFFSET	 0.000000	 0.000000	 0.047237
										CHANNELS 3 Zrotation Xrotation Yrotation
										JOINT LeftHandIndex3
										{
											OFFSET	-0.004284	-0.000551	 0.038165
											CHANNELS 3 Zrotation Xrotation Yrotation
											End Site
											{
												OFFSET	-0.004284	-0.000551	 0.038165
											}
										}
									}
								}
							}
						}
					}
				}
				JOINT Neck
				{
					OFFSET	 0.000000	 0.000000	 0.176489
					CHANNELS 3 Zrotation Xrotation Yrotation
					JOINT Head
					{
						OFFSET	 0.000000	-0.001747	 0.077940
						CHANNELS 3 Zrotation Xrotation Yrotation
						End Site
						{
							OFFSET	 0.000000	-0.001747	 0.077940
						}
					}
				}
				JOINT RightShoulder
				{
					OFFSET	-0.080363	 0.000306	 0.159706
					CHANNELS 3 Zrotation Xrotation Yrotation
					JOINT RightArm
					{
						OFFSET	 0.000000	 0.000000	 0.164196
						CHANNELS 3 Zrotation Xrotation Yrotation
						JOINT RightForeArm
						{
							OFFSET	 0.000000	 0.000000	 0.365611
							CHANNELS 3 Zrotation Xrotation Yrotation
							JOINT RightHand
							{
								OFFSET	 0.000000	 0.000000	 0.360648
								CHANNELS 3 Zrotation Xrotation Yrotation
								JOINT RightHandIndex1
								{
									OFFSET	 0.000000	 0.000000	 0.069977
									CHANNELS 3 Zrotation Xrotation Yrotation
									JOINT RightHandIndex2
									{
										OFFSET	 0.000000	 0.000000	 0.052305
										CHANNELS 3 Zrotation Xrotation Yrotation
										JOINT RightHandIndex3
										{
											OFFSET	 0.009002	-0.000782	 0.042196
											CHANNELS 3 Zrotation Xrotation Yrotation
											End Site
											{
												OFFSET	 0.009002	-0.000782	 0.042196
											}
										}
									}
								}
							}
						}
					}
				}
			}
		}
	}
}
MOTION
Frames:    5
Frame Time: 0.03333334
-0.710947	-1.662488	 1.272789	 179.979400	 0.264213	 0.113848	-18.813960	-2.043883	-178.962800	 6.079417	-11.328580	 1.587687	-27.842090	 71.016380	 8.374336	-2.385833	 28.452760	 0.000004	 8.825705	-2.475623	 177.831600	-19.823760	-12.029470	-1.874285	 32.980750	 71.124500	-10.103870	 2.384659	 28.388700	-0.000001	-15.360110	 0.765936	-1.765851	-9.397873	 10.455550	 8.918963	 23.256690	-18.970430	-2.129210	-91.776150	 78.527350	 180.000000	-6.228251	-7.481403	-3.459635	-4.836647	-2.547964	-13.862660	 6.529143	-11.660010	-5.756592	-4.131196	 21.524690	 0.986298	-5.167839	 0.733520	 3.519257	-1.378229	 35.397820	-2.634230	 0.000022	-3.783157	-0.089647	-10.219190	 9.129430	 0.818038	 89.782140	 78.203900	 180.000000	 6.110212	-5.620091	-3.481222	 7.121984	-3.899497	 34.241190	 10.898350	 7.090007	 46.944470	 5.715225	 19.176060	-3.692089	 5.027514	 0.245388	-9.378011	-2.350882	 35.473990	 5.254307
-0.706806	-1.653353	 1.271535	-176.103200	 4.811391	-4.675317	-14.618610	-6.878822	-176.437100	-0.296169	-11.867850	 0.340650	-19.039890	 53.858920	 9.006788	-2.385833	 28.452760	 0.000004	 10.843420	-12.026890	-176.609200	-5.329202	-22.834410	 2.167777	-15.738490	 86.350790	 26.535500	 2.384659	 28.388700	-0.000001	-21.435440	 7.689644	 8.424212	-12.058990	-10.408410	-10.210770	 24.794860	-6.490404	 3.260282	-91.776200	 78.527430	-180.000000	-32.216170	 7.020066	 16.840180	-10.261330	-7.769423	-58.223460	 6.709456	-14.010440	-4.232266	-4.131196	 21.524690	 0.986298	-5.167839	 0.733520	 3.519257	-1.378229	 35.397820	-2.634230	 1.499683	 8.067877	 0.891002	-7.890213	-9.484935	-3.061746	 89.782190	 78.203890	 179.999900	-26.499280	-3.041920	-16.133730	 1.157935	-17.348450	 55.291410	-3.023726	 36.712070	 100.827300	 5.715225	 19.176060	-3.692089	 5.027514	 0.245388	-9.378011	-2.350882	 35.473990	 5.254307
-0.702321	-1.647273	 1.270160	-175.958800	 4.470642	-5.097677	-14.668550	-7.875590	-176.509000	 0.801618	-16.759670	 0.794623	-22.392010	 55.463120	 12.184180	-2.385833	 28.452760	 0.000004	 12.949280	-13.264710	-175.753400	-6.379230	-25.417750	 1.943807	-18.455500	 89.853290	 30.018050	 2.384659	 28.388700	-0.000001	-22.955140	 7.625589	 9.049939	-13.243000	-7.537981	-10.543510	 25.022380	-7.884978	 3.724907	-91.776180	 78.527420	 180.000000	-27.358210	 12.596460	 26.851520	-12.843130	-8.401509	-75.235860	 6.318505	-14.314650	-4.085730	-4.131196	 21.524690	 0.986298	-5.167839	 0.733520	 3.519257	-1.378229	 35.397820	-2.634230	 1.375783	 7.946105	 1.264886	-7.806509	-8.974652	-2.926525	 89.782100	 78.203920	 180.000000	-25.563380	 1.821491	-17.074120	 4.503133	-18.978380	 65.776080	-2.549114	 34.845200	 91.898960	 5.715225	 19.176060	-3.692089	 5.027514	 0.245388	-9.378011	-2.350882	 35.473990	 5.254307
-0.679398	-1.608808	 1.264437	-175.908200	 3.475515	-5.325613	-19.325460	-6.259083	-178.534200	 4.892045	-30.147090	 3.449562	-37.836100	 59.469300	 27.889820	-2.385833	 28.452760	 0.000004	 15.190910	-19.734560	-171.666600	-6.339788	-33.383470	 2.513090	 41.789620	 79.057290	-32.445520	 2.384659	 28.388700	-0.000001	-31.365310	 6.799009	 9.783234	-19.693840	 12.744120	-10.606890	 27.417950	-18.739690	 9.284954	-91.776180	 78.527380	 180.000000	 23.943420	 43.942980	 3.963227	-16.558790	-7.189418	-101.898400	 5.260934	-15.160380	-3.734126	-4.131196	 21.524690	 0.986298	-5.167839	 0.733520	 3.519257	-1.378229	 35.397820	-2.634230	 1.780544	 8.254562	 0.969472	-7.501872	-9.712991	-2.843915	 89.782150	 78.203920	 180.000000	-21.396820	 44.368410	-5.071517	 8.830540	-20.983570	 78.958630	-44.298150	 21.302830	 81.333330	 5.715225	 19.176060	-3.692089	 5.027514	 0.245388	-9.378011	-2.350882	 35.473990	 5.254307
-0.662142	-1.575641	 1.263405	-176.044700	 5.579323	-3.486593	-22.453350	-3.866712	 177.977600	 2.994311	-33.529000	 2.736927	-38.238450	 57.166780	 31.772700	-2.385833	 28.452760	 0.000004	 16.111280	-25.305000	-169.929900	-6.863399	-34.796170	 2.306286	 36.315160	 71.194310	-28.998050	 2.384659	 28.388700	-0.000001	-36.251420	 6.257740	 3.431003	-25.277280	 20.050980	-3.326320	 28.071040	-24.497850	 8.877019	-91.776190	 78.527420	-180.000000	 34.788140	 47.040760	-40.764830	-11.680920	-6.666331	-63.121840	 5.078019	-15.610010	-3.690554	-4.131196	 21.524690	 0.986298	-5.167839	 0.733520	 3.519257	-1.378229	 35.397820	-2.634230	 2.190157	 8.418694	 0.302120	-7.363876	-10.080780	-2.131382	 89.782100	 78.203930	 180.000000	-27.077220	 62.394960	 14.749530	-2.303103	-16.172910	 45.762430	-67.693770	-7.063698	 80.857470	 5.715225	 19.176060	-3.692089	 5.027514	 0.245388	-9.378011	-2.350882	 35.473990	 5.254307
